<svg width="512" height="512" viewBox="0 0 512 512" fill="none" xmlns="http://www.w3.org/2000/svg">
<rect width="512" height="512" fill="white"/>
<path d="M148.734 119.588C150.365 119.485 151.996 119.485 153.624 119.48C186.257 119.38 219.475 129.837 242.801 153.386C245.04 155.647 251.148 162.082 251.506 165.146C252.255 171.585 251.932 179.711 251.923 186.303L251.878 228.618L251.724 392.521C246.443 383.804 225.765 374.112 216.381 370.027C189.779 358.3 155.877 354.91 127.125 357.684C118.354 358.53 109.86 360.079 101.26 361.886C98.594 362.445 95.4301 360.422 95.3183 357.591C95.1858 354.229 95.2471 350.742 95.2502 347.34L95.2763 326.579L95.3251 259.069L95.3765 176.3L95.3646 149.699C95.3632 145.79 95.1717 139.555 95.4179 135.779C95.5118 134.326 96.0881 132.946 97.055 131.857C99.0074 129.693 103.297 128.351 106.036 127.358C120.081 122.266 133.88 120.247 148.734 119.588Z" fill="#1E2229"/>
<path d="M363.266 119.588C361.635 119.485 360.004 119.485 358.376 119.48C325.743 119.38 292.525 129.837 269.199 153.386C266.96 155.647 260.852 162.082 260.494 165.146C259.745 171.585 260.068 179.711 260.077 186.303L260.122 228.618L260.276 392.521C265.557 383.804 286.235 374.112 295.619 370.027C322.221 358.3 356.123 354.91 384.875 357.684C393.646 358.53 402.14 360.079 410.74 361.886C413.406 362.445 416.57 360.422 416.682 357.591C416.814 354.229 416.753 350.742 416.75 347.34L416.724 326.579L416.675 259.069L416.623 176.3L416.635 149.699C416.637 145.79 416.828 139.555 416.582 135.779C416.488 134.326 415.912 132.946 414.945 131.857C412.993 129.693 408.703 128.351 405.964 127.358C391.919 122.266 378.12 120.247 363.266 119.588Z" fill="#1E2229"/>
<path d="M82.5645 161.028L87.4401 161.091L87.3425 302.979C87.3377 310.866 86.6579 357.614 87.9349 361.277C89.6225 366.12 93.2977 369.323 98.4621 369.93C103.061 370.472 108.084 368.858 112.637 368.222C118.06 367.482 123.505 366.914 128.963 366.511C163.832 364.213 198.685 371.241 229.939 386.875C225.86 386.114 222.071 385.43 217.963 384.871C188.037 380.034 149.125 379.869 119.025 383.552C112.284 384.383 105.564 385.379 98.8718 386.543C94.533 387.32 90.0146 388.37 85.7315 388.903C79.6285 389.658 74.1928 384.168 74.0759 378.212C74.0075 374.728 74.0674 371.312 74.0813 367.853L74.0785 349.581L74.0887 287.924L74.0955 206.927L74.1227 183.513C74.0875 178.573 73.9919 173.568 74.0305 168.633C74.0453 166.785 74.6845 164.448 76.0044 163.111C78.1082 160.98 79.8555 161.055 82.5645 161.028Z" fill="#1E2229"/>
<path d="M429.436 161.028L424.56 161.091L424.658 302.979C424.662 310.866 425.342 357.614 424.065 361.277C422.377 366.12 418.702 369.323 413.538 369.93C408.939 370.472 403.916 368.858 399.363 368.222C393.94 367.482 388.495 366.914 383.037 366.511C348.168 364.213 313.315 371.241 282.061 386.875C286.14 386.114 289.929 385.43 294.037 384.871C323.963 380.034 362.875 379.869 392.975 383.552C399.716 384.383 406.436 385.379 413.128 386.543C417.467 387.32 421.985 388.37 426.269 388.903C432.372 389.658 437.807 384.168 437.924 378.212C437.992 374.728 437.933 371.312 437.919 367.853L437.922 349.581L437.911 287.924L437.905 206.927L437.877 183.513C437.912 178.573 438.008 173.568 437.97 168.633C437.955 166.785 437.316 164.448 435.996 163.111C433.892 160.98 432.145 161.055 429.436 161.028Z" fill="#1E2229"/>
</svg>
